<?xml version="1.0" encoding="iso-8859-1"?>
<!-- Generator: Adobe Illustrator 19.0.0, SVG Export Plug-In . SVG Version: 6.00 Build 0)  -->
<svg version="1.1" id="Capa_1" xmlns="http://www.w3.org/2000/svg" xmlns:xlink="http://www.w3.org/1999/xlink" x="0px" y="0px"
	 viewBox="0 0 480 480" style="enable-background:new 0 0 480 480;" xml:space="preserve">
<path style="fill:#EA9D2D;" d="M251.832,8h-72h-40v240l29.336,88h82.664V8z"/>
<path style="fill:#FBB540;" d="M283.832,72h48v40.504h-48V72z"/>
<path style="fill:#D9D9D9;" d="M179.832,8h32.504v32.504h-32.504V8z"/>
<path style="fill:#FBB540;" d="M195.832,72v264H402.8l16.528-56.84V72H195.832z"/>
<path style="fill:#D68F29;" d="M171.832,72h24v256h-24V72z"/>
<path style="fill:#F0F0F0;" d="M283.832,72h48v40.504h-48V72z"/>
<g>
	<path style="fill:#787D82;" d="M187.832,480c-17.673,0-32-14.327-32-32s14.327-32,32-32s32,14.327,32,32S205.505,480,187.832,480z
		 M187.832,432c-8.837,0-16,7.163-16,16s7.163,16,16,16s16-7.163,16-16S196.669,432,187.832,432z"/>
	<path style="fill:#787D82;" d="M363.832,480c-17.673,0-32-14.327-32-32s14.327-32,32-32s32,14.327,32,32S381.505,480,363.832,480z
		 M363.832,432c-8.837,0-16,7.163-16,16s7.163,16,16,16s16-7.163,16-16S372.669,432,363.832,432z"/>
</g>
<path id="SVGCleanerId_0" style="fill:#3B869E;" d="M235.136,344h168.696c0.977-0.012,1.943-0.207,2.848-0.576
	c0.275-0.126,0.542-0.267,0.8-0.424c0.882-0.441,1.666-1.056,2.304-1.808c0.398-0.458,0.739-0.963,1.016-1.504
	c0.181-0.316,0.339-0.645,0.472-0.984c0.064-0.176,0.176-0.312,0.232-0.488l55.328-192c0.059-0.368,0.092-0.739,0.096-1.112
	c0.108-0.361,0.188-0.73,0.24-1.104c0-0.168-0.088-0.304-0.096-0.472c-0.054-0.543-0.164-1.079-0.328-1.6
	c-0.175-0.988-0.627-1.907-1.304-2.648c-0.283-0.418-0.607-0.807-0.968-1.16c-0.377-0.307-0.785-0.575-1.216-0.8
	c-0.456-0.317-0.944-0.586-1.456-0.8c-0.137-0.08-0.279-0.152-0.424-0.216c-0.373-0.064-0.75-0.096-1.128-0.096
	c-0.354-0.098-0.715-0.167-1.08-0.208h-348.2L83.312,45.656C82.282,42.295,79.179,40,75.664,40H20.832c-4.418,0-8,3.582-8,8
	s3.582,8,8,8h48.912l85.6,279.512L132.032,388.8c-1.767,4.049,0.083,8.765,4.132,10.532c1.008,0.44,2.096,0.667,3.196,0.668h264.472
	c4.418,0,8-3.582,8-8s-3.582-8-8-8H151.56l17.504-40L235.136,344z M155.056,280h55.648l13.832,48h-54.784L155.056,280z M135.464,216
	h56.8l13.832,48h-55.664c-0.104,0-0.192,0.056-0.288,0.056L135.464,216z M448.536,152l-13.84,48h-55.344l13.832-48H448.536z
	 M416.256,264h-55.352l13.832-48h55.352L416.256,264z M397.808,328h-55.376l13.832-48h55.352L397.808,328z M291.832,328v-48h47.816
	l-13.84,48H291.832z M241.184,328l-13.832-48h48.48v48H241.184z M291.832,264v-48h66.256l-13.832,48H291.832z M362.696,200h-70.864
	v-48h84.704L362.696,200z M275.832,200h-71.536l-13.864-48h85.4V200z M275.832,216v48h-53.088l-13.832-48H275.832z M173.808,152
	l13.84,48H130.56l-14.696-48H173.808z"/>
<g>
	<path id="SVGCleanerId_0_1_" style="fill:#3B869E;" d="M235.136,344h168.696c0.977-0.012,1.943-0.207,2.848-0.576
		c0.275-0.126,0.542-0.267,0.8-0.424c0.882-0.441,1.666-1.056,2.304-1.808c0.398-0.458,0.739-0.963,1.016-1.504
		c0.181-0.316,0.339-0.645,0.472-0.984c0.064-0.176,0.176-0.312,0.232-0.488l55.328-192c0.059-0.368,0.092-0.739,0.096-1.112
		c0.108-0.361,0.188-0.73,0.24-1.104c0-0.168-0.088-0.304-0.096-0.472c-0.054-0.543-0.164-1.079-0.328-1.6
		c-0.175-0.988-0.627-1.907-1.304-2.648c-0.283-0.418-0.607-0.807-0.968-1.16c-0.377-0.307-0.785-0.575-1.216-0.8
		c-0.456-0.317-0.944-0.586-1.456-0.8c-0.137-0.08-0.279-0.152-0.424-0.216c-0.373-0.064-0.75-0.096-1.128-0.096
		c-0.354-0.098-0.715-0.167-1.08-0.208h-348.2L83.312,45.656C82.282,42.295,79.179,40,75.664,40H20.832c-4.418,0-8,3.582-8,8
		s3.582,8,8,8h48.912l85.6,279.512L132.032,388.8c-1.767,4.049,0.083,8.765,4.132,10.532c1.008,0.44,2.096,0.667,3.196,0.668
		h264.472c4.418,0,8-3.582,8-8s-3.582-8-8-8H151.56l17.504-40L235.136,344z M155.056,280h55.648l13.832,48h-54.784L155.056,280z
		 M135.464,216h56.8l13.832,48h-55.664c-0.104,0-0.192,0.056-0.288,0.056L135.464,216z M448.536,152l-13.84,48h-55.344l13.832-48
		H448.536z M416.256,264h-55.352l13.832-48h55.352L416.256,264z M397.808,328h-55.376l13.832-48h55.352L397.808,328z M291.832,328
		v-48h47.816l-13.84,48H291.832z M241.184,328l-13.832-48h48.48v48H241.184z M291.832,264v-48h66.256l-13.832,48H291.832z
		 M362.696,200h-70.864v-48h84.704L362.696,200z M275.832,200h-71.536l-13.864-48h85.4V200z M275.832,216v48h-53.088l-13.832-48
		H275.832z M173.808,152l13.84,48H130.56l-14.696-48H173.808z"/>
</g>
<path d="M20.832,56h48.92l62.4,203.936l23.136,75.56L132.032,388.8c-1.767,4.049,0.083,8.765,4.132,10.532
	c1.008,0.44,2.096,0.667,3.196,0.668h264.472c4.418,0,8-3.582,8-8s-3.582-8-8-8H151.568l17.496-40h234.768
	c0.868,0,1.729-0.141,2.552-0.416c0.112-0.04,0.2-0.12,0.304-0.16c0.275-0.126,0.542-0.267,0.8-0.424
	c0.388-0.171,0.762-0.372,1.12-0.6c0.176-0.128,0.304-0.328,0.472-0.472c0.251-0.229,0.486-0.475,0.704-0.736
	c0.615-0.752,1.116-1.591,1.488-2.488c0.064-0.168,0.184-0.312,0.232-0.488l55.336-192c0.057-0.371,0.087-0.745,0.088-1.12
	c0.109-0.358,0.189-0.725,0.24-1.096c-0.023-0.156-0.056-0.311-0.096-0.464c-0.049-0.557-0.159-1.107-0.328-1.64
	c-0.104-0.469-0.252-0.927-0.44-1.368c-0.522-0.862-1.133-1.667-1.824-2.4c-0.824-0.638-1.721-1.175-2.672-1.6
	c-0.137-0.08-0.279-0.152-0.424-0.216c-0.37-0.06-0.745-0.092-1.12-0.096c-0.359-0.1-0.726-0.172-1.096-0.216h-31.336V72
	c-0.282-4.573-3.931-8.218-8.504-8.496H259.832V8c0-4.418-3.582-8-8-8h-112c-4.418,0-8,3.582-8,8v128h-20.864L83.32,45.664
	c-1.028-3.367-4.136-5.666-7.656-5.664H20.832c-4.418,0-8,3.582-8,8S16.414,56,20.832,56L20.832,56z M291.832,328v-48h47.816
	l-13.84,48H291.832z M291.832,80h32v24.496h-32V80z M283.832,120.496h48c4.418,0,8-3.582,8-8V80h71.496v56H259.832V80h16v32.496
	C275.832,116.914,279.414,120.496,283.832,120.496z M291.832,200v-48h84.704l-13.832,48H291.832z M358.088,216l-13.832,48h-52.424
	v-48H358.088z M275.832,152v48h-16v-48H275.832z M243.832,200h-39.536l-0.464-1.6V152h40V200z M208.912,216h34.92v48h-21.088
	L208.912,216z M206.088,264h-2.256v-7.84L206.088,264z M259.832,216h16v48h-16V216z M275.832,280v48h-16v-48H275.832z M356.296,280
	h55.352l-13.84,48h-55.376L356.296,280z M411.832,264h-50.92l13.832-48h37.088L411.832,264z M427.832,216h2.256l-2.256,7.84V216z
	 M379.352,200l13.832-48h18.648v48H379.352z M203.832,80h40v56h-40V80z M173.808,152l13.84,48h-39.816v-48H173.808z M187.832,216v48
	h-37.4c-0.104,0-0.184,0.056-0.288,0.056l-2.344-7.648V216L187.832,216z M169.744,328l-14.032-45.848L155.056,280h32.8v48H169.744z
	 M203.832,280h6.872l13.832,48h-20.704V280z M241.184,328l-13.832-48h16.48v48H241.184z M448.536,152l-13.832,48h-6.872v-48H448.536
	z M204.328,16v16.496h-16.496V16H204.328z M147.832,16h24v24.496c0,4.418,3.582,8,8,8h32.496c4.418,0,8-3.582,8-8V16h23.504v47.504
	h-48c-4.418,0-8,3.582-8,8V136h-40V16z M131.832,152v48h-1.272l-14.688-48H131.832z"/>
<path d="M155.832,448c0,17.673,14.327,32,32,32s32-14.327,32-32s-14.327-32-32-32S155.832,430.327,155.832,448z M203.832,448
	c0,8.837-7.163,16-16,16s-16-7.163-16-16s7.163-16,16-16S203.832,439.163,203.832,448z"/>
<path d="M331.832,448c0,17.673,14.327,32,32,32s32-14.327,32-32s-14.327-32-32-32S331.832,430.327,331.832,448z M379.832,448
	c0,8.837-7.163,16-16,16s-16-7.163-16-16s7.163-16,16-16S379.832,439.163,379.832,448z"/>
<g>
</g>
<g>
</g>
<g>
</g>
<g>
</g>
<g>
</g>
<g>
</g>
<g>
</g>
<g>
</g>
<g>
</g>
<g>
</g>
<g>
</g>
<g>
</g>
<g>
</g>
<g>
</g>
<g>
</g>
</svg>
