<?xml version="1.0" encoding="iso-8859-1"?>
<!-- Generator: Adobe Illustrator 19.0.0, SVG Export Plug-In . SVG Version: 6.00 Build 0)  -->
<svg version="1.1" id="Capa_1" xmlns="http://www.w3.org/2000/svg" xmlns:xlink="http://www.w3.org/1999/xlink" x="0px" y="0px"
	 viewBox="0 0 480.014 480.014" style="enable-background:new 0 0 480.014 480.014;" xml:space="preserve">
<path style="fill:#DBDBDB;" d="M472.009,208.014h-112c-4.418,0.024-8.02-3.538-8.044-7.956c-0.007-1.256,0.282-2.496,0.844-3.62
	l56-112c2.358-3.954,7.475-5.249,11.429-2.891c1.189,0.709,2.182,1.702,2.891,2.891l56,112c1.975,3.952,0.372,8.757-3.58,10.732
	C474.449,207.72,473.238,208.009,472.009,208.014z M372.953,192.014h86.112l-43.056-86.112L372.953,192.014z"/>
<path style="fill:#1F6C8C;" d="M424.009,264.014h-16c-30.911-0.04-55.96-25.089-56-56v-8c0-4.418,3.582-8,8-8h112
	c4.418,0,8,3.582,8,8v8C479.969,238.926,454.921,263.975,424.009,264.014z"/>
<path style="fill:#3B869E;" d="M360.009,192.014c-1.841,0.027-3.614,0.701-5.008,1.904c7.691,22.738,29.005,38.056,53.008,38.096h16
	c24.003-0.04,45.318-15.358,53.008-38.096c-1.394-1.203-3.167-1.877-5.008-1.904L360.009,192.014z"/>
<path style="fill:#DBDBDB;" d="M120.009,320.014h-112c-4.418,0.002-8.002-3.578-8.004-7.996c-0.001-1.243,0.288-2.468,0.844-3.58
	l56-112c2.358-3.954,7.475-5.249,11.429-2.891c1.189,0.709,2.182,1.702,2.891,2.891l56,112c1.975,3.952,0.372,8.757-3.58,10.732
	C122.477,319.726,121.252,320.015,120.009,320.014z M20.953,304.014h86.112l-43.056-86.112L20.953,304.014z"/>
<path style="fill:#1F6C8C;" d="M72.009,376.014h-16c-30.911-0.04-55.96-25.089-56-56v-8c0-4.418,3.582-8,8-8h112
	c4.418,0,8,3.582,8,8v8C127.969,350.926,102.921,375.975,72.009,376.014z"/>
<path style="fill:#3B869E;" d="M8.009,304.014c-1.841,0.027-3.614,0.701-5.008,1.904c7.691,22.738,29.005,38.056,53.008,38.096h16
	c24.003-0.04,45.317-15.358,53.008-38.096c-1.394-1.203-3.167-1.877-5.008-1.904H8.009z"/>
<g>
	<path style="fill:#A6A6A6;" d="M416.009,104.014c-4.418,0-8-3.582-8-8v-64c0-4.418,3.582-8,8-8s8,3.582,8,8v64
		C424.009,100.433,420.427,104.014,416.009,104.014z"/>
	<path style="fill:#A6A6A6;" d="M64.009,216.014c-4.418,0-8-3.582-8-8v-64c0-4.418,3.582-8,8-8s8,3.582,8,8v64
		C72.009,212.433,68.427,216.014,64.009,216.014z"/>
	<path style="fill:#A6A6A6;" d="M56.849,196.438l-21.784,43.576h17.888l11.056-22.112l11.056,22.112h17.888l-21.744-43.576
		c-2.339-3.965-7.45-5.284-11.415-2.945C58.579,194.21,57.566,195.223,56.849,196.438z"/>
	<path style="fill:#A6A6A6;" d="M408.849,84.438l-21.784,43.576h17.888l11.056-22.112l11.056,22.112h17.888l-21.744-43.576
		c-2.339-3.965-7.45-5.284-11.415-2.945C410.579,82.21,409.566,83.223,408.849,84.438L408.849,84.438z"/>
</g>
<g>
	<path style="fill:#744630;" d="M224.009,80.014h32v304h-32V80.014z"/>
	<path style="fill:#744630;" d="M184.009,376.014h112v40h-112V376.014z"/>
</g>
<path style="fill:#5B3726;" d="M184.009,392.014h112v16h-112V392.014z"/>
<g>
	<path style="fill:#744630;" d="M152.009,408.014h176v48h-176V408.014z"/>
	<path style="fill:#744630;" d="M120.009,440.014h240v32h-240V440.014z"/>
</g>
<path style="fill:#533222;" d="M224.009,88.014h32v56h-32V88.014z"/>
<g>
	<path style="fill:#5B3726;" d="M152.009,424.014h176v16h-176V424.014z"/>
	<path style="fill:#5B3726;" d="M224.009,360.014h32v16h-32V360.014z"/>
	<path style="fill:#5B3726;" d="M120.009,456.014h240v16h-240V456.014z"/>
</g>
<path style="fill:#744630;" d="M200.009,75.83l64-20.24L412.185,8.726c8.075-2.497,16.645,2.026,19.142,10.101
	c0.466,1.506,0.696,3.075,0.682,4.651c0.022,6.728-4.314,12.695-10.72,14.752l-149.28,47.208l-64,20.24L67.833,150.006
	c-8.069,2.501-16.638-2.013-19.139-10.082c-0.469-1.512-0.7-3.088-0.685-4.67c-0.021-6.726,4.316-12.69,10.72-14.744L200.009,75.83z
	"/>
<path style="fill:#804D35;" d="M269.961,91.518c-6.66,19.043-27.497,29.081-46.539,22.42c-19.043-6.66-29.081-27.497-22.42-46.539
	c6.66-19.043,27.497-29.081,46.539-22.42c14.623,5.114,24.429,18.896,24.468,34.387C272.014,83.503,271.322,87.612,269.961,91.518"
	/>
<path d="M479.457,197.262c-0.072-0.176-0.112-0.36-0.192-0.528s-0.048-0.2-0.096-0.296l-55.16-110.312V45.734
	c12.303-4.154,18.909-17.495,14.755-29.798c-1.545-4.577-4.462-8.566-8.355-11.426c-5.928-4.404-13.619-5.673-20.648-3.408
	l-144.08,45.6c-8.045-7.536-18.648-11.742-29.672-11.768c-20.649,0.107-38.466,14.511-42.896,34.68l-136.8,43.256
	c-12.367,3.989-19.158,17.248-15.17,29.614c1.516,4.7,4.472,8.803,8.45,11.73c1.95,1.431,4.109,2.554,6.4,3.328v40.576
	L0.849,308.438c-0.048,0.096-0.056,0.2-0.104,0.296s-0.112,0.352-0.184,0.528c-0.295,0.79-0.462,1.622-0.496,2.464
	c0,0.096-0.056,0.184-0.056,0.288v8c0.04,30.911,25.089,55.96,56,56h16c30.911-0.04,55.96-25.089,56-56v-8
	c0-0.104-0.056-0.184-0.056-0.288c-0.034-0.842-0.201-1.674-0.496-2.464c-0.072-0.176-0.112-0.36-0.192-0.528
	s-0.048-0.2-0.096-0.296l-55.16-110.312v-41.048l136.416-43.144c2.351,1.909,4.893,3.571,7.584,4.96v248h-32c-4.418,0-8,3.582-8,8
	v24.32h-24c-4.418,0-8,3.582-8,8v24.384h-24c-4.418,0-8,3.582-8,8v32.416c0,4.418,3.582,8,8,8h240c4.418,0,8-3.582,8-8V439.63
	c0-4.418-3.582-8-8-8h-24v-24.416c0-4.418-3.582-8-8-8h-24v-24.352c0-4.418-3.582-8-8-8h-32V115.806c-0.047-0.681-0.181-1.353-0.4-2
	c6.362-5.138,11.175-11.939,13.904-19.648c0.264-0.736,0.368-1.512,0.584-2.256l129.912-41.08v35.304l-55.2,110.312
	c-0.048,0.096-0.056,0.2-0.104,0.296s-0.112,0.352-0.184,0.528c-0.295,0.79-0.462,1.622-0.496,2.464
	c0,0.096-0.056,0.184-0.056,0.288v8c0.04,30.911,25.089,55.96,56,56h16c30.911-0.04,55.96-25.089,56-56v-8
	c0-0.104-0.056-0.184-0.056-0.288C479.892,198.886,479.738,198.054,479.457,197.262z M414.593,16.35c2.18-0.696,4.562-0.3,6.4,1.064
	c3.343,2.472,4.049,7.186,1.577,10.529c-0.919,1.243-2.199,2.173-3.665,2.663l-139.128,44c-0.538-4.968-1.912-9.81-4.064-14.32
	L414.593,16.35z M61.145,128.134l131.496-41.6c0.778,4.934,2.387,9.7,4.76,14.096L65.425,142.414c-2.179,0.707-4.566,0.31-6.4-1.064
	c-3.34-2.476-4.04-7.191-1.564-10.531c0.917-1.237,2.192-2.163,3.652-2.653L61.145,128.134z M72.009,360.014h-16
	c-22.08-0.026-39.974-17.92-40-40h96C111.983,342.095,94.089,359.988,72.009,360.014z M20.953,304.014l43.056-86.112l43.056,86.112
	H20.953z M352.009,464.014h-224V447.63h224V464.014z M320.009,431.63h-160v-16.416h160V431.63z M288.009,399.214h-96v-16.352h96
	V399.214z M248.009,123.774v243.088h-16V123.806L248.009,123.774z M262.409,88.838c-5.202,14.867-21.471,22.703-36.339,17.501
	s-22.703-21.471-17.501-36.339S230.04,47.298,244.908,52.5c11.411,3.992,19.065,14.745,19.101,26.835
	c0.012,3.246-0.529,6.471-1.6,9.536V88.838z M416.009,105.902l43.056,86.112h-86.112L416.009,105.902z M424.009,248.014h-16
	c-22.08-0.026-39.974-17.92-40-40h96C463.983,230.095,446.089,247.988,424.009,248.014z"/>
<g>
</g>
<g>
</g>
<g>
</g>
<g>
</g>
<g>
</g>
<g>
</g>
<g>
</g>
<g>
</g>
<g>
</g>
<g>
</g>
<g>
</g>
<g>
</g>
<g>
</g>
<g>
</g>
<g>
</g>
</svg>
