<?xml version="1.0" encoding="iso-8859-1"?>
<!-- Generator: Adobe Illustrator 19.0.0, SVG Export Plug-In . SVG Version: 6.00 Build 0)  -->
<svg version="1.1" id="Capa_1" xmlns="http://www.w3.org/2000/svg" xmlns:xlink="http://www.w3.org/1999/xlink" x="0px" y="0px"
	 viewBox="0 0 480.168 480.168" style="enable-background:new 0 0 480.168 480.168;" xml:space="preserve">
<path style="fill:#FBB540;" d="M408.168,296.075v160h-336v-160"/>
<path style="fill:#EA9D2D;" d="M72.168,296.075h336v40h-336V296.075z"/>
<path style="fill:#FBB540;" d="M40.168,120.075h400v176h-400V120.075z"/>
<g>
	<path style="fill:#DC4D41;" d="M184.168,296.075v-176h112v336h-112V296.075z"/>
	<path style="fill:#DC4D41;" d="M163.248,120.075c-28.198-0.031-51.049-22.882-51.08-51.08v-1.84
		c0.005-28.211,22.878-51.076,51.089-51.071c20.881,0.004,39.657,12.716,47.415,32.103l28.76,71.888H163.248z"/>
</g>
<path style="fill:#F0F0F0;" d="M192.168,88.075h-28.92c-10.538,0-19.08-8.542-19.08-19.08c0,0,0,0,0,0v-1.84
	c0-10.538,8.542-19.08,19.08-19.08l0,0c7.804,0.001,14.822,4.754,17.72,12L192.168,88.075z"/>
<path style="fill:#DC4D41;" d="M317.088,120.075c28.198-0.031,51.049-22.882,51.08-51.08v-1.84
	c-0.005-28.211-22.878-51.076-51.089-51.071c-20.881,0.004-39.657,12.716-47.415,32.103l-28.76,71.888H317.088z"/>
<path style="fill:#F0F0F0;" d="M288.168,88.075h28.92c10.538,0,19.08-8.542,19.08-19.08v-1.84c0-10.538-8.542-19.08-19.08-19.08
	c-7.804,0.001-14.822,4.754-17.72,12L288.168,88.075z"/>
<g>
	<g>
		<path id="SVGCleanerId_0" style="fill:#F7BA61;" d="M440.168,0.075h16v16h-16V0.075z"/>
	</g>
	<g>
		<path id="SVGCleanerId_1" style="fill:#F7BA61;" d="M416.168,24.075h16v16h-16V24.075z"/>
	</g>
	<g>
		<path id="SVGCleanerId_2" style="fill:#F7BA61;" d="M440.168,48.075h16v16h-16V48.075z"/>
	</g>
	<g>
		<path id="SVGCleanerId_3" style="fill:#F7BA61;" d="M464.168,24.075h16v16h-16V24.075z"/>
	</g>
	<g>
		<path id="SVGCleanerId_4" style="fill:#F7BA61;" d="M32.168,0.075h16v16h-16V0.075z"/>
	</g>
	<g>
		<path id="SVGCleanerId_5" style="fill:#F7BA61;" d="M8.168,24.075h16v16h-16V24.075z"/>
	</g>
	<g>
		<path id="SVGCleanerId_6" style="fill:#F7BA61;" d="M32.168,48.075h16v16h-16V48.075z"/>
	</g>
	<g>
		<path id="SVGCleanerId_7" style="fill:#F7BA61;" d="M56.168,24.075h16v16h-16V24.075z"/>
	</g>
	<g>
		<path id="SVGCleanerId_8" style="fill:#F7BA61;" d="M448.168,432.075h16v16h-16V432.075z"/>
	</g>
	<g>
		<path id="SVGCleanerId_9" style="fill:#F7BA61;" d="M432.168,448.075h16v16h-16V448.075z"/>
	</g>
	<g>
		<path id="SVGCleanerId_10" style="fill:#F7BA61;" d="M448.168,464.075h16v16h-16V464.075z"/>
	</g>
	<g>
		<path id="SVGCleanerId_11" style="fill:#F7BA61;" d="M464.168,448.075h16v16h-16V448.075z"/>
	</g>
	<path style="fill:#F7BA61;" d="M15.655,432l15.996-0.336l0.336,15.996l-15.996,0.336L15.655,432z"/>
	<path style="fill:#F7BA61;" d="M0.002,448.326l15.996-0.336l0.336,15.996l-15.996,0.336L0.002,448.326z"/>
	<path style="fill:#F7BA61;" d="M16.339,464.093l16-0.336l0.336,16l-16,0.336L16.339,464.093z"/>
	<path style="fill:#F7BA61;" d="M32.168,448.075h16v16h-16V448.075z"/>
</g>
<g>
	<path style="fill:#C7463B;" d="M184.168,296.075h112v40h-112V296.075z"/>
	<path style="fill:#C7463B;" d="M360.32,96.075H250.504l-9.6,24h76.184C334.671,120.057,351.006,110.989,360.32,96.075
		L360.32,96.075z"/>
	<path style="fill:#C7463B;" d="M120.016,96.075c9.308,14.904,25.628,23.971,43.2,24H239.4l-9.6-24H120.016z"/>
</g>
<path d="M440.168,304.075c4.418,0,8-3.582,8-8v-176c0-4.418-3.582-8-8-8h-82.784c11.97-11.13,18.774-26.735,18.784-43.08v-1.84
	c-0.001-32.629-26.453-59.079-59.082-59.078c-24.159,0.001-45.883,14.711-54.854,37.142l-22.064,55.152l-22.064-55.152
	c-12.116-30.296-46.498-45.034-76.794-32.918c-22.432,8.971-37.141,30.695-37.142,54.854v1.84c0.01,16.345,6.814,31.95,18.784,43.08
	H40.168c-4.418,0-8,3.582-8,8v176c0,4.418,3.582,8,8,8h24v152c0,4.418,3.582,8,8,8h336c4.418,0,8-3.582,8-8v-152H440.168z
	 M432.168,128.075v160h-128v-160H432.168z M239.432,128.075h48.736v160h-96v-160H239.432z M277.088,51.155
	c8.835-22.091,33.905-32.838,55.996-24.003c16.358,6.542,27.085,22.385,27.083,40.003v1.84c-0.026,23.781-19.299,43.054-43.08,43.08
	H252.72L277.088,51.155z M120.168,68.995v-1.84c-0.002-23.792,19.284-43.082,43.076-43.084
	c17.618-0.001,33.462,10.725,40.004,27.084l24.368,60.92h-64.368C139.467,112.049,120.194,92.777,120.168,68.995z M48.168,128.075
	h128v160h-128V128.075z M80.168,304.075h96v144h-96V304.075z M192.168,448.075v-144h96v144H192.168z M400.168,448.075h-96v-144h96
	V448.075z"/>
<path d="M198.792,92.563c1.49-2.201,1.79-4.998,0.8-7.464l-11.2-28c-5.553-13.887-21.312-20.642-35.199-15.089
	c-10.283,4.112-17.025,14.071-17.025,25.145v1.84c0.018,14.949,12.131,27.062,27.08,27.08h28.92
	C194.822,96.076,197.303,94.76,198.792,92.563z M163.248,80.075c-6.116-0.009-11.071-4.964-11.08-11.08v-1.84
	c0.001-6.119,4.963-11.079,11.082-11.078c4.53,0.001,8.604,2.76,10.286,6.966l6.816,17.032H163.248z"/>
<path d="M344.168,68.995v-1.84c0-14.956-12.123-27.08-27.079-27.081c-11.074,0-21.033,6.742-25.145,17.025l-11.2,28
	c-1.644,4.101,0.349,8.758,4.45,10.402c0.946,0.379,1.955,0.574,2.974,0.574h28.92C332.037,96.058,344.15,83.944,344.168,68.995z
	 M306.8,63.043c2.272-5.682,8.72-8.446,14.402-6.174c4.207,1.682,6.965,5.756,6.966,10.286v1.84
	c-0.009,6.116-4.964,11.071-11.08,11.08h-17.104L306.8,63.043z"/>
<path id="SVGCleanerId_0_1_" d="M440.168,0.075h16v16h-16V0.075z"/>
<path id="SVGCleanerId_1_1_" d="M416.168,24.075h16v16h-16V24.075z"/>
<path id="SVGCleanerId_2_1_" d="M440.168,48.075h16v16h-16V48.075z"/>
<path id="SVGCleanerId_3_1_" d="M464.168,24.075h16v16h-16V24.075z"/>
<path id="SVGCleanerId_4_1_" d="M32.168,0.075h16v16h-16V0.075z"/>
<path id="SVGCleanerId_5_1_" d="M8.168,24.075h16v16h-16V24.075z"/>
<path id="SVGCleanerId_6_1_" d="M32.168,48.075h16v16h-16V48.075z"/>
<path id="SVGCleanerId_7_1_" d="M56.168,24.075h16v16h-16V24.075z"/>
<path id="SVGCleanerId_8_1_" d="M448.168,432.075h16v16h-16V432.075z"/>
<path id="SVGCleanerId_9_1_" d="M432.168,448.075h16v16h-16V448.075z"/>
<path id="SVGCleanerId_10_1_" d="M448.168,464.075h16v16h-16V464.075z"/>
<path id="SVGCleanerId_11_1_" d="M464.168,448.075h16v16h-16V448.075z"/>
<path d="M16.336,463.987L16,447.995l16-0.336l-0.336-16l-16,0.336L16,447.987l-16,0.336l0.336,16L16.336,463.987z"/>
<path d="M32.664,479.651l-0.32-15.576h15.824v-16h-16v15.584l-15.832,0.328l0.328,16L32.664,479.651z"/>
<g>
</g>
<g>
</g>
<g>
</g>
<g>
</g>
<g>
</g>
<g>
</g>
<g>
</g>
<g>
</g>
<g>
</g>
<g>
</g>
<g>
</g>
<g>
</g>
<g>
</g>
<g>
</g>
<g>
</g>
</svg>
