<?xml version="1.0" encoding="iso-8859-1"?>
<!-- Generator: Adobe Illustrator 19.0.0, SVG Export Plug-In . SVG Version: 6.00 Build 0)  -->
<svg version="1.1" id="Capa_1" xmlns="http://www.w3.org/2000/svg" xmlns:xlink="http://www.w3.org/1999/xlink" x="0px" y="0px"
	 viewBox="0 0 512 512" style="enable-background:new 0 0 512 512;" xml:space="preserve">
<path style="fill:#F7E4BA;" d="M110.933,469.333h-76.8c-4.719,0-8.533-3.823-8.533-8.533v-85.333c0-4.71,3.814-8.533,8.533-8.533
	H460.8c4.719,0,8.533,3.823,8.533,8.533v25.6h-17.067V384h-409.6v68.267h68.267V469.333z"/>
<path style="fill:#B3E4E8;" d="M418.364,307.2H76.8c-28.279,0-51.2-22.921-51.2-51.2V59.733c0-28.279,22.921-51.2,51.2-51.2h341.333
	c28.254,0,51.166,22.886,51.2,51.14l0.23,196.267C469.598,284.237,446.66,307.2,418.364,307.2z"/>
<path style="fill:#DBDBDB;" d="M25.6,256c0,28.279,22.921,51.2,51.2,51.2h341.564c28.279,0,51.2-22.929,51.2-51.2H25.6z"/>
<polygon style="fill:#B9B9B9;" points="314.436,358.4 179.968,358.4 196.087,307.2 298.829,305.971 "/>
<g>
	<path style="fill:#DBDBDB;" d="M342.135,392.533H152.798c-8.986,0-16.265-7.279-16.265-16.265v-1.604
		c0-8.986,7.279-16.265,16.265-16.265h189.338c8.986,0,16.265,7.279,16.265,16.265v1.604
		C358.4,385.254,351.121,392.533,342.135,392.533z"/>
	<rect x="110.933" y="426.667" style="fill:#DBDBDB;" width="273.067" height="76.8"/>
	<path style="fill:#DBDBDB;" d="M460.8,477.867L460.8,477.867c-14.14,0-25.6-11.46-25.6-25.6v-25.6c0-14.14,11.46-25.6,25.6-25.6
		l0,0c14.14,0,25.6,11.46,25.6,25.6v25.6C486.4,466.406,474.94,477.867,460.8,477.867z"/>
</g>
<rect x="452.267" y="426.667" style="fill:#6C7175;" width="17.067" height="17.067"/>
<g>
	<rect x="426.667" y="213.333" style="fill:#6FBBC6;" width="17.067" height="17.067"/>
	<rect x="392.533" y="213.333" style="fill:#6FBBC6;" width="17.067" height="17.067"/>
	<rect x="358.4" y="213.333" style="fill:#6FBBC6;" width="17.067" height="17.067"/>
</g>
<g>
	<rect x="136.533" y="469.333" style="fill:#6C7175;" width="17.067" height="17.067"/>
	<rect x="136.533" y="443.733" style="fill:#6C7175;" width="17.067" height="17.067"/>
	<rect x="170.667" y="469.333" style="fill:#6C7175;" width="153.6" height="17.067"/>
	<rect x="170.667" y="443.733" style="fill:#6C7175;" width="17.067" height="17.067"/>
	<rect x="204.8" y="443.733" style="fill:#6C7175;" width="17.067" height="17.067"/>
	<rect x="238.933" y="443.733" style="fill:#6C7175;" width="17.067" height="17.067"/>
	<rect x="273.067" y="443.733" style="fill:#6C7175;" width="17.067" height="17.067"/>
	<rect x="307.2" y="443.733" style="fill:#6C7175;" width="17.067" height="17.067"/>
	<rect x="341.333" y="443.733" style="fill:#6C7175;" width="17.067" height="17.067"/>
	<rect x="341.333" y="469.333" style="fill:#6C7175;" width="17.067" height="17.067"/>
	<polygon style="fill:#6C7175;" points="306.816,332.8 299.187,307.2 196.087,307.2 188.023,332.8 	"/>
	<path style="fill:#6C7175;" d="M136.533,376.269c0,8.986,7.279,16.265,16.265,16.265h189.338c8.986,0,16.265-7.279,16.265-16.265
		v-0.802H136.533V376.269z"/>
</g>
<path style="fill:#B6E8EC;" d="M444.006,15.607c-7.595-4.471-16.418-7.074-25.873-7.074H76.8c-28.279,0-51.2,22.921-51.2,51.2
	v177.28C128.273,215.731,315.802,158.993,444.006,15.607z"/>
<path d="M469.333,393.745v-18.278c0-4.71-3.814-8.533-8.533-8.533h-95.223c-3.268-9.873-12.484-17.067-23.441-17.067h-21.393
	l-10.513-34.133h108.134c15.966,0,30.976-6.221,42.266-17.519c11.281-11.298,17.485-26.308,17.468-42.283l-0.23-196.267
	C477.824,26.769,451.029,0,418.133,0H76.8C43.87,0,17.067,26.795,17.067,59.733V256c0,32.939,26.803,59.733,59.733,59.733h107.657
	l-10.752,34.133h-20.907c-10.957,0-20.173,7.194-23.441,17.067H34.133c-4.719,0-8.533,3.823-8.533,8.533V460.8
	c0,4.71,3.814,8.533,8.533,8.533H102.4v34.133c0,4.71,3.814,8.533,8.533,8.533H384c4.719,0,8.533-3.823,8.533-8.533v-76.8
	c0-4.71-3.814-8.533-8.533-8.533H110.933c-4.719,0-8.533,3.823-8.533,8.533v25.6H42.667V384h86.69
	c3.268,9.873,12.484,17.067,23.441,17.067h189.338c10.957,0,20.173-7.194,23.441-17.067h86.69v9.745
	c-14.686,3.814-25.6,17.067-25.6,32.922v25.6c0,18.825,15.309,34.133,34.133,34.133s34.133-15.309,34.133-34.133v-25.6
	C494.933,410.812,484.019,397.559,469.333,393.745z M119.467,435.2h256v59.733h-256V435.2z M34.133,59.733
	c0-23.526,19.14-42.667,42.667-42.667h341.333c23.501,0,42.641,19.115,42.667,42.615l0.213,187.785H34.133V59.733z M34.995,264.533
	H460.16c-1.638,8.132-5.615,15.616-11.614,21.615c-8.064,8.073-18.782,12.518-30.191,12.518H298.667H196.087H76.8
	C56.201,298.667,38.963,283.981,34.995,264.533z M202.351,315.733h90.018l10.505,34.133H191.599L202.351,315.733z M349.867,376.269
	c0,4.267-3.465,7.731-7.731,7.731H152.798c-4.267,0-7.731-3.473-7.731-7.731v-1.604c0-4.267,3.465-7.731,7.731-7.731h27.17h134.468
	h27.699c4.267,0,7.731,3.473,7.731,7.731L349.867,376.269L349.867,376.269z M477.867,452.267c0,9.412-7.654,17.067-17.067,17.067
	c-9.412,0-17.067-7.654-17.067-17.067v-25.6c0-9.412,7.654-17.067,17.067-17.067c9.412,0,17.067,7.654,17.067,17.067V452.267z"/>
<rect x="452.267" y="426.667" width="17.067" height="17.067"/>
<rect x="426.667" y="213.333" width="17.067" height="17.067"/>
<rect x="392.533" y="213.333" width="17.067" height="17.067"/>
<rect x="358.4" y="213.333" width="17.067" height="17.067"/>
<rect x="136.533" y="469.333" width="17.067" height="17.067"/>
<rect x="136.533" y="443.733" width="17.067" height="17.067"/>
<rect x="170.667" y="469.333" width="153.6" height="17.067"/>
<rect x="170.667" y="443.733" width="17.067" height="17.067"/>
<rect x="204.8" y="443.733" width="17.067" height="17.067"/>
<rect x="238.933" y="443.733" width="17.067" height="17.067"/>
<rect x="273.067" y="443.733" width="17.067" height="17.067"/>
<rect x="307.2" y="443.733" width="17.067" height="17.067"/>
<rect x="341.333" y="443.733" width="17.067" height="17.067"/>
<rect x="341.333" y="469.333" width="17.067" height="17.067"/>
<g>
</g>
<g>
</g>
<g>
</g>
<g>
</g>
<g>
</g>
<g>
</g>
<g>
</g>
<g>
</g>
<g>
</g>
<g>
</g>
<g>
</g>
<g>
</g>
<g>
</g>
<g>
</g>
<g>
</g>
</svg>
