<svg height="512" viewBox="0 0 512 512" width="512" xmlns="http://www.w3.org/2000/svg"><g id="filled_outline" data-name="filled outline"><path d="m338.613 214.498 42.178 97.084 22.225-15.379-44.698-85.07z" fill="#f6bb92"/><path d="m232 256h-208v-48c0-41.438 46.562-88 104-88a104 104 0 0 1 104 104z" fill="#683b0d"/><path d="m376 320 3.44 2.293a81.608 81.608 0 0 0 45.271 13.707h63.289v-112h-32z" fill="#fdc9a6"/><path d="m448 296h-64l-41.058-104h-38.942v-72h80z" fill="#0bafea"/><path d="m436.36 264h-.36a47.484 47.484 0 0 1 -17.61-41.5l.59-6.3z" fill="#0bafea"/><path d="m410.18 192h-58.18l-16-40h59.64z" fill="#8feaff"/><path d="m410.18 192h-58.18l-16-40h59.64z" fill="#8feaff"/><path d="m272 120h32v72h-32z" fill="#026ca2"/><path d="m128 360a72 72 0 0 1 -72-72v-88h144v88a72 72 0 0 1 -72 72z" fill="#fdc9a6"/><g fill="#683b0d"><circle cx="96" cy="256" r="16"/><circle cx="160" cy="256" r="16"/><path d="m128 315.867a83.985 83.985 0 0 1 -26.53-4.278 8 8 0 1 1 5.06-15.178 68.319 68.319 0 0 0 42.94 0 8 8 0 0 1 5.06 15.178 83.985 83.985 0 0 1 -26.53 4.278z"/></g><path d="m48 232h8a0 0 0 0 1 0 0v48a0 0 0 0 1 0 0h-8a24 24 0 0 1 -24-24 24 24 0 0 1 24-24z" fill="#fdc9a6"/><path d="m224 232h8a0 0 0 0 1 0 0v48a0 0 0 0 1 0 0h-8a24 24 0 0 1 -24-24 24 24 0 0 1 24-24z" fill="#fdc9a6" transform="matrix(-1 0 0 -1 432 512)"/><circle cx="264" cy="400" fill="#fbb540" r="56"/><path d="m312.11 371.34-50.45 50.32a8.015 8.015 0 0 1 -11.32 0l-16-16a8 8 0 0 1 11.32-11.32l10.34 10.35 45.96-45.86a55.678 55.678 0 0 1 10.15 12.51z" fill="#fbb540"/><path d="m311.6 370.49a7.855 7.855 0 0 1 -1.94 3.17l-48 48a8.015 8.015 0 0 1 -11.32 0l-16-16a8 8 0 0 1 11.32-11.32l10.34 10.35 42.34-42.35a7.986 7.986 0 0 1 4.89-2.3 55.974 55.974 0 0 1 8.37 10.45z" fill="#fbb540"/><path d="m312.11 371.34-50.45 50.32a8.015 8.015 0 0 1 -11.32 0l-16-16a8 8 0 0 1 11.32-11.32l10.34 10.35 45.96-45.86a55.678 55.678 0 0 1 10.15 12.51z" fill="#029532"/><path d="m240 120a8 8 0 0 1 -8-8 32.036 32.036 0 0 1 32-32 8 8 0 0 1 0 16 16.019 16.019 0 0 0 -16 16 8 8 0 0 1 -8 8z" fill="#029532"/><path d="m208 120a8 8 0 0 1 -8-8 64.072 64.072 0 0 1 64-64h8a8 8 0 0 1 0 16h-8a48.055 48.055 0 0 0 -48 48 8 8 0 0 1 -8 8z" fill="#029532"/><rect fill="#fdc9a6" height="32" rx="16" width="48" x="312" y="192"/><rect fill="#fdc9a6" height="32" rx="16" width="48" x="328" y="224"/><rect fill="#fdc9a6" height="32" rx="16" width="48" x="336" y="256"/><path d="m448 296 3.558 7.412-59.558.588-2.922-7.797z" fill="#f6bb92"/><rect fill="#fdc9a6" height="32" rx="16" width="48" x="344" y="288"/><path d="m440 192-16-32h-7.735a16 16 0 0 0 -14.707 22.3l14.442 33.7v9.373a54.626 54.626 0 0 0 16 38.627l8 8 48-8v-40a51.776 51.776 0 0 1 -46.311-28.622z" fill="#fdc9a6"/><path d="m496 224a8 8 0 0 0 -8-8 43.537 43.537 0 0 1 -39.155-24.2l-17.69-35.379a8 8 0 0 0 -7.155-4.421h-7.735a23.965 23.965 0 0 0 -12.546 3.534l-12.1-37.963a8 8 0 0 0 -7.619-5.571h-112a8 8 0 0 0 -8 8v72a8 8 0 0 0 8 8h33.376a23.986 23.986 0 0 0 16.324 31.154 23.955 23.955 0 0 0 9.4 29.069 23.955 23.955 0 0 0 8 32 23.983 23.983 0 0 0 20.9 35.777h13.578l1.424.949a89.334 89.334 0 0 0 49.708 15.051h63.29a8 8 0 0 0 8-8zm-200-40h-16v-56h16zm92.349-24 4.028 12.642c.027.084.063.162.092.244a23.931 23.931 0 0 0 1.169 11.114h-36.221l-9.6-24zm-76.349-32h66.153l5.1 16h-47.253a8 8 0 0 0 -7.428 10.971l11.612 29.029h-28.184zm16 88a8 8 0 0 1 0-16h16a8 8 0 0 1 0 16zm8 24a8.009 8.009 0 0 1 8-8h16a8 8 0 0 1 0 16h-16a8.009 8.009 0 0 1 -8-8zm8 32a8.009 8.009 0 0 1 8-8h16a8 8 0 0 1 0 16h-16a8.009 8.009 0 0 1 -8-8zm32 40h-16a8 8 0 0 1 0-16h16a8 8 0 0 1 0 16zm12.9-28.223a23.955 23.955 0 0 0 -8-32 23.976 23.976 0 0 0 -14.6-34.931 23.923 23.923 0 0 0 .324-16.846h33.376c.145 0 .287-.014.43-.022l7.57 17.664v7.731a62.215 62.215 0 0 0 18.291 44.232l4.291 4.446 5.592 13.949h-42.3a24.184 24.184 0 0 0 -4.974-4.223zm91.1 44.223h-55.29a73.363 73.363 0 0 1 -31.643-7.147 23.921 23.921 0 0 0 6.933-16.853h48a8 8 0 0 0 7.425-10.977s-10.817-26.92-10.89-27.061c-.056-.11-6.778-7.517-6.778-7.517l-.1-.1a46.32 46.32 0 0 1 -13.657-32.972v-9.373a7.993 7.993 0 0 0 -.647-3.151l-14.441-33.7a8 8 0 0 1 7.353-11.149h2.791l15.478 30.956a59.4 59.4 0 0 0 45.466 32.512z"/><circle cx="96" cy="256" r="16"/><circle cx="160" cy="256" r="16"/><path d="m96.411 301.47a8 8 0 0 0 5.059 10.119 84.4 84.4 0 0 0 53.06 0 8 8 0 0 0 -5.06-15.178 68.319 68.319 0 0 1 -42.94 0 8 8 0 0 0 -10.119 5.059z"/><path d="m48 288a80 80 0 0 0 160 0 32.036 32.036 0 0 0 32-32v-32a112.127 112.127 0 0 0 -112-112 118.419 118.419 0 0 0 -78.87 30.5c-21.055 18.813-33.13 42.688-33.13 65.5v48a32.036 32.036 0 0 0 32 32zm144 0a64 64 0 0 1 -128 0v-80h128zm16-16v-32a16 16 0 0 1 0 32zm-176-64c0-17.993 10.39-38.021 27.792-53.574a102.438 102.438 0 0 1 68.208-26.426 96.108 96.108 0 0 1 96 96v4.305a31.793 31.793 0 0 0 -16-4.305v-24a8 8 0 0 0 -8-8h-144a8 8 0 0 0 -8 8v24a31.793 31.793 0 0 0 -16 4.305zm16 32v32a16 16 0 0 1 0-32z"/><path d="m200 400a64 64 0 1 0 64-64 64.072 64.072 0 0 0 -64 64zm64-48a47.81 47.81 0 0 1 32.228 12.459l-40.228 40.227-10.343-10.343a8 8 0 0 0 -11.314 11.314l16 16a8 8 0 0 0 11.314 0l44.532-44.533a47.994 47.994 0 1 1 -42.189-25.124z"/><path d="m240 120a8 8 0 0 0 8-8 16.019 16.019 0 0 1 16-16 8 8 0 0 0 0-16 32.036 32.036 0 0 0 -32 32 8 8 0 0 0 8 8z"/><path d="m272 64a8 8 0 0 0 0-16h-8a64.072 64.072 0 0 0 -64 64 8 8 0 0 0 16 0 48.055 48.055 0 0 1 48-48z"/></g></svg>