<svg height="512" viewBox="0 0 512 512" width="512" xmlns="http://www.w3.org/2000/svg"><g id="filled_outline" data-name="filled outline"><path d="m176 120h-32v-24a16 16 0 0 1 16-16 16 16 0 0 1 16 16z" fill="#cdcdcd"/><path d="m144 104h32v8h-32z" fill="#b9b9b9"/><path d="m368 120h-32v-24a16 16 0 0 1 16-16 16 16 0 0 1 16 16z" fill="#cdcdcd"/><path d="m429.566 185.645a113.582 113.582 0 0 1 -80.41-33.176l-10.812-10.813a8 8 0 0 1 11.312-11.312l10.813 10.812a97.8 97.8 0 0 0 123.093 12.188 8 8 0 0 1 8.876 13.312 113.154 113.154 0 0 1 -62.872 18.989z" fill="#cdcdcd"/><path d="m256 72a8 8 0 0 1 -8-8v-40a8 8 0 0 1 16 0v40a8 8 0 0 1 -8 8z" fill="#b9b9b9"/><path d="m272 208h-32l-65.488-62.176a8 8 0 0 1 11.312-11.312l57.488 57.488h25.376l57.488-57.488a8 8 0 0 1 11.312 11.312z" fill="#d9d9d9"/><path d="m272 208h-32l-65.488-62.176a8 8 0 0 1 11.312-11.312l57.488 57.488h25.376l57.488-57.488a8 8 0 0 1 11.312 11.312z" fill="#d9d9d9"/><rect fill="#a07a5c" height="32" rx="16" width="288" x="112" y="112"/><path d="m384 112h-256a15.962 15.962 0 0 0 -15.434 12 15.962 15.962 0 0 0 15.434 12h256a15.962 15.962 0 0 0 15.434-12 15.962 15.962 0 0 0 -15.434-12z" fill="#b08566"/><path d="m264 240h72v72h-72z" fill="#4298d1"/><path d="m272 248h64v16h-64z" fill="#3e8cc7"/><path d="m296 272h16v16h-16z" fill="#aac266"/><path d="m264 208h80v40h-80z" fill="#69b9e7"/><g fill="#b9b9b9"><path d="m316.688 144-16 16h21.869l14.931-14.176a7.723 7.723 0 0 0 1.212-1.824z"/><path d="m195.312 144h-22.012a7.723 7.723 0 0 0 1.212 1.824l14.931 14.176h21.869z"/><path d="m336 104h32v8h-32z"/></g><path d="m256 48a16 16 0 0 1 16 16v432a0 0 0 0 1 0 0h-32a0 0 0 0 1 0 0v-432a16 16 0 0 1 16-16z" fill="#be906e"/><path d="m296 272h16v16h-16z"/><path d="m160 72a24.027 24.027 0 0 0 -24 24v8h-8a24.113 24.113 0 0 0 -24 24 24.027 24.027 0 0 0 24 24h52.688l51.312 51.312v284.688a8 8 0 0 0 8 8h32a8 8 0 0 0 8-8v-168h56a8 8 0 0 0 8-8v-56a8 8 0 0 0 8-8v-40a8 8 0 0 0 -8-8h-60.688l48-48h17.376l.468.469a113.842 113.842 0 0 0 143.282 14.187 8 8 0 0 0 -8.876-13.312 97.86 97.86 0 0 1 -110.162-1.344h10.6a24.113 24.113 0 0 0 24-24 24.027 24.027 0 0 0 -24-24h-8v-8a24 24 0 0 0 -48 0v8h-48v-48a23.96 23.96 0 0 0 -16-22.526v-9.474a8 8 0 0 0 -16 0v9.474a23.96 23.96 0 0 0 -16 22.526v48h-48v-8a24.027 24.027 0 0 0 -24-24zm-8 24a8 8 0 0 1 16 0v8h-16zm51.312 56h28.688v28.688zm124.688 152h-48v-48h48zm8-64h-56v-24h56zm-56-59.312v-28.688h28.688zm64-84.688a8 8 0 0 1 16 0v8h-16zm40 24a8.011 8.011 0 0 1 8 8 7.8 7.8 0 0 1 -2.445 5.695 7.672 7.672 0 0 1 -5.555 2.305h-104v-16zm-136-64a8 8 0 0 1 16 0v424h-16zm-16 80h-104a8.011 8.011 0 0 1 -8-8 7.8 7.8 0 0 1 2.445-5.695 7.672 7.672 0 0 1 5.555-2.305h104z"/></g></svg>