<svg height="512" viewBox="0 0 512 512" width="512" xmlns="http://www.w3.org/2000/svg"><g id="filled_outline" data-name="filled outline"><path d="m480 224v80h-440l-16-16v-96h440a24 24 0 0 1 24 24v8z" fill="#f55648"/><path d="m248 224h192v32h-192z" fill="#ebebeb"/><path d="m24 224h160v32h-160z" fill="#ebebeb"/><circle cx="390" cy="296" fill="#ebebeb" r="18"/><circle cx="128" cy="296" fill="#ebebeb" r="18"/><path d="m128 322a26 26 0 1 1 26-26 26.03 26.03 0 0 1 -26 26zm0-36a10 10 0 1 0 10 10 10.011 10.011 0 0 0 -10-10z" fill="#878787"/><path d="m390 322a26 26 0 1 1 26-26 26.03 26.03 0 0 1 -26 26zm0-36a10 10 0 1 0 10 10 10.011 10.011 0 0 0 -10-10z" fill="#878787"/><path d="m440 224h48v80h-48z" fill="#cbcbcb"/><path d="m480 224h8v80h-8z" fill="#e4e4e2"/><g fill="#cbcbcb"><path d="m48 224h16v32h-16z"/><path d="m24 224h8v32h-8z"/><path d="m80 224h16v32h-16z"/><path d="m112 224h16v32h-16z"/><path d="m144 224h16v32h-16z"/><path d="m176 224h16v32h-16z"/><path d="m240 224h16v32h-16z"/><path d="m368 224h16v32h-16z"/><path d="m400 224h16v32h-16z"/></g><path d="m152 192h-64l8-24h48z" fill="#b94137"/><path d="m336 192h-64l8-24h48z" fill="#b94137"/><path d="m304 224h16v32h-16z" fill="#cbcbcb"/><path d="m272 224h16v32h-16z" fill="#cbcbcb"/><path d="m336 224h16v32h-16z" fill="#cbcbcb"/><path d="m24 224h160v8h-160z" fill="#cbcbcb"/><path d="m248 224h192v8h-192z" fill="#cbcbcb"/><path d="m184 224h64v80h-64z" fill="#b94137"/><path d="m184 224h32v80h-32z" fill="#a83b32"/><path d="m464 184h-122.234l-6.177-18.53a8 8 0 0 0 -7.589-5.47h-48a8 8 0 0 0 -7.589 5.47l-6.177 18.53h-108.468l-6.177-18.53a8 8 0 0 0 -7.589-5.47h-48a8 8 0 0 0 -7.589 5.47l-6.177 18.53h-58.234a8 8 0 0 0 -8 8v96a8 8 0 0 0 2.343 5.657l16 16a8 8 0 0 0 5.657 2.343h67.529a25.953 25.953 0 0 0 40.942 0h221.058a25.953 25.953 0 0 0 40.942 0h77.529a8 8 0 0 0 8-8v-88a32.036 32.036 0 0 0 -32-32zm-178.234-8h36.468l2.666 8h-41.8zm-184 0h36.468l2.666 8h-41.8zm-69.766 56h16v16h-16zm96 74a10 10 0 1 1 10-10 10.011 10.011 0 0 1 -10 10zm48-10h-22a26 26 0 0 0 -52 0h-58.687l-11.313-11.313v-20.687h144zm-112-48v-16h16v16zm32 0v-16h16v16zm32 0v-16h16v16zm48 0h-16v-16h16zm32 48h-16v-64h16zm32 0h-16v-64h16zm150 10a10 10 0 1 1 10-10 10.011 10.011 0 0 1 -10 10zm42-10h-16a26 26 0 0 0 -52 0h-108v-32h176zm-176-48v-16h16v16zm32 0v-16h16v16zm32 0v-16h16v16zm32 0v-16h16v16zm32 0v-16h16v16zm48 0h-16v-16h16zm48 48h-32v-64h32zm-448-80v-16h432a16.019 16.019 0 0 1 16 16z"/></g></svg>