<svg height="511pt" viewBox="1 -106 511.99967 511" width="511pt" xmlns="http://www.w3.org/2000/svg"><path d="m426.667969 43.167969-17.066407 8.53125h-17.066406l-17.070312-8.53125 8.535156-34.136719h34.132812zm0 0" fill="#d18d28"/><path d="m34.132812 43.167969h443.734376c14.136718 0 25.597656 11.460937 25.597656 25.597656v196.269531h-494.929688v-196.269531c0-14.136719 11.460938-25.597656 25.597656-25.597656zm0 0" fill="#ea9d2d"/><path d="m196.265625 77.300781h119.46875v110.933594h-119.46875zm0 0" fill="#6fbbc6"/><path d="m42.667969 77.300781h85.332031v110.933594h-59.734375c-14.136719 0-25.597656-11.460937-25.597656-25.601563zm0 0" fill="#6fbbc6"/><path d="m128 111.433594h68.265625v153.597656h-68.265625zm0 0" fill="#a8a8a8"/><path d="m128 111.433594h34.132812v153.597656h-34.132812zm0 0" fill="#b9b9b9"/><path d="m315.734375 111.433594h68.265625v153.597656h-68.265625zm0 0" fill="#a8a8a8"/><path d="m315.734375 111.433594h34.132813v153.597656h-34.132813zm0 0" fill="#b9b9b9"/><path d="m435.199219 77.300781h68.265625v110.933594h-51.199219c-18.851563 0-34.132813-15.285156-34.132813-34.132813v-59.734374c0-9.425782 7.640626-17.066407 17.066407-17.066407zm0 0" fill="#6fbbc6"/><path d="m128 77.300781h68.265625v34.132813h-68.265625zm0 0" fill="#d18d28"/><path d="m315.734375 77.300781h68.265625v34.132813h-68.265625zm0 0" fill="#d18d28"/><path d="m503.464844 111.433594h-85.332032v-17.066406c0-9.425782 7.640626-17.066407 17.066407-17.066407h68.269531v34.132813zm0 0" fill="#69b0bb"/><g fill="#64a8b2"><path d="m230.398438 145.566406c-4.710938 0-8.53125-3.820312-8.53125-8.53125v-25.601562c0-4.714844 3.820312-8.535156 8.53125-8.535156 4.714843 0 8.535156 3.824218 8.535156 8.535156v25.601562c0 4.710938-3.820313 8.53125-8.535156 8.53125zm0 0"/><path d="m85.332031 145.566406c-4.710937 0-8.53125-3.820312-8.53125-8.53125v-25.601562c0-4.714844 3.820313-8.535156 8.53125-8.535156 4.714844 0 8.535157 3.824218 8.535157 8.535156v25.601562c0 4.710938-3.820313 8.53125-8.535157 8.53125zm0 0"/><path d="m281.601562 145.566406c-4.714843 0-8.535156-3.820312-8.535156-8.53125v-25.601562c0-4.714844 3.820313-8.535156 8.535156-8.535156 4.710938 0 8.53125 3.824218 8.53125 8.535156v25.601562c0 4.710938-3.820312 8.53125-8.53125 8.53125zm0 0"/></g><path d="m8.535156 230.898438h119.464844v34.132812h-119.464844zm0 0" fill="#d9d9d9"/><path d="m196.265625 230.898438h119.46875v34.132812h-119.46875zm0 0" fill="#d9d9d9"/><path d="m384 230.898438h119.464844v34.132812h-119.464844zm0 0" fill="#d9d9d9"/><path d="m93.867188 265.03125c0 14.140625-11.460938 25.601562-25.601563 25.601562-14.136719 0-25.597656-11.460937-25.597656-25.601562 0-14.136719 11.460937-25.597656 25.597656-25.597656 14.140625 0 25.601563 11.460937 25.601563 25.597656zm0 0" fill="#a8a8a8"/><path d="m469.332031 265.03125c0 14.140625-11.460937 25.601562-25.597656 25.601562-14.140625 0-25.601563-11.460937-25.601563-25.601562 0-14.136719 11.460938-25.597656 25.601563-25.597656 14.136719 0 25.597656 11.460937 25.597656 25.597656zm0 0" fill="#a8a8a8"/><path d="m42.667969 77.300781h85.332031v34.132813h-85.332031zm0 0" fill="#69b0bb"/><path d="m196.265625 77.300781h119.46875v34.132813h-119.46875zm0 0" fill="#69b0bb"/><path d="m477.867188 34.632812h-44.542969l-6.914063-27.664062c-.945312-3.800781-4.359375-6.46875-8.277344-6.46875h-34.132812c-3.917969 0-7.328125 2.667969-8.277344 6.46875l-6.910156 27.664062h-334.679688c-18.851562 0-34.132812 15.28125-34.132812 34.132813v196.269531c0 4.710938 3.820312 8.53125 8.535156 8.53125h26.128906c.226563 0 .417969-.109375.636719-.128906 4.546875 18.203125 22.988281 29.273438 41.191407 24.730469 12.132812-3.03125 21.617187-12.480469 24.695312-24.601563h309.625c4.625 18.183594 23.117188 29.171875 41.300781 24.542969 12.058594-3.070313 21.472657-12.484375 24.542969-24.542969h26.808594c4.714844 0 8.535156-3.820312 8.535156-8.53125v-196.269531c0-18.851563-15.28125-34.132813-34.132812-34.132813zm-87.203126-17.066406h20.804688l4.265625 17.066406h-29.335937zm-355.363281 239.0625c-.21875 0-.410156-.128906-.636719-.128906h-17.597656v-17.066406h28.859375c-5.203125 4.523437-8.90625 10.519531-10.625 17.195312zm32.964844 25.472656c-9.425781 0-17.066406-7.644531-17.066406-17.070312 0-9.421875 7.640625-17.066406 17.066406-17.066406s17.066406 7.640625 17.066406 17.066406-7.640625 17.070312-17.066406 17.070312zm51.199219-25.601562h-18.277344c-1.722656-6.625-5.410156-12.574219-10.582031-17.066406h28.863281v17.066406zm0-76.800781h-51.199219c-9.425781 0-17.066406-7.640625-17.066406-17.066407v-42.667968h25.601562v17.070312c0 4.710938 3.820313 8.53125 8.53125 8.53125 4.714844 0 8.535157-3.820312 8.535157-8.53125v-17.070312h25.597656zm0-76.800781h-68.265625v-17.066407h68.265625zm34.136718 153.601562h-17.066406v-136.535156h17.066406zm34.132813 0h-17.066406v-136.535156h17.066406zm0-153.601562h-51.199219v-17.066407h51.199219zm119.464844 153.601562h-102.398438v-17.066406h102.398438zm0-34.132812h-102.398438v-25.601563h102.398438zm0-42.667969h-102.398438v-59.734375h17.066407v17.070312c0 4.710938 3.820312 8.53125 8.53125 8.53125 4.714843 0 8.535156-3.820312 8.535156-8.53125v-17.070312h34.132812v17.070312c0 4.710938 3.820313 8.53125 8.535156 8.53125 4.710938 0 8.53125-3.820312 8.53125-8.53125v-17.070312h17.066407zm0-76.800781h-102.398438v-17.066407h102.398438zm34.132812 153.601562h-17.066406v-136.535156h17.066406zm34.132813 0h-17.066406v-136.535156h17.066406zm0-153.601562h-51.199219v-17.066407h51.199219zm35.347656 153.601562h-18.277344v-17.066406h28.859375c-5.171875 4.492187-8.859375 10.441406-10.582031 17.066406zm32.921875 25.601562c-9.425781 0-17.066406-7.644531-17.066406-17.070312 0-9.421875 7.640625-17.066406 17.066406-17.066406s17.066406 7.640625 17.066406 17.066406-7.640625 17.070312-17.066406 17.070312zm51.199219-25.601562h-18.277344c-1.726562-6.625-5.414062-12.574219-10.582031-17.066406h28.859375zm0-76.800781h-42.667969c-14.136719 0-25.597656-11.460938-25.597656-25.597657v-34.136718h68.265625zm0-76.800781h-68.265625v-8.53125c0-4.714844 3.820312-8.535157 8.53125-8.535157h59.734375zm-59.734375-34.132813c-14.136719 0-25.597657 11.460937-25.597657 25.601563v59.734374c.027344 23.550782 19.113282 42.636719 42.664063 42.664063h42.667969v25.601563h-102.398438v-145.066407c0-4.714843-3.820312-8.535156-8.535156-8.535156h-341.332031c-4.714844 0-8.535157 3.820313-8.535157 8.535156v85.332031c0 18.851563 15.28125 34.132813 34.132813 34.132813h51.199219v25.601563h-102.398438v-153.601563c0-9.425781 7.640625-17.066406 17.066406-17.066406h443.734376c9.425781 0 17.066406 7.640625 17.066406 17.066406zm0 0"/></svg>