<svg height="511pt" viewBox="0 -81 511.99999 511" width="511pt" xmlns="http://www.w3.org/2000/svg"><path d="m255.996094 60.234375v8.53125h-68.265625v-8.53125l17.066406-51.199219h34.132813zm0 0" fill="#ea9d2d"/><path d="m401.066406 162.636719-2.140625 18.03125-337.0625-.964844-2.132812-17.066406 34.132812-68.269531v-8.53125c0-14.140626 11.460938-25.601563 25.601563-25.601563h196.265625c14.140625 0 25.601562 11.460937 25.601562 25.601563v8.53125zm0 0" fill="#fbb540"/><path d="m204.796875 162.636719h-145.066406l34.132812-68.269531h110.933594zm0 0" fill="#b3e4e8"/><path d="m401.066406 162.636719h-162.136718v-68.269531h102.402343zm0 0" fill="#b3e4e8"/><path d="m494.933594 265.035156h-469.339844v-68.265625c0-18.851562 15.285156-34.132812 34.136719-34.132812h341.335937l93.867188 25.597656zm0 0" fill="#fbb540"/><path d="m25.59375 256.503906h460.804688c9.425781 0 17.070312 7.640625 17.070312 17.066406 0 9.425782-7.640625 17.066407-17.070312 17.066407h-460.804688c-9.425781 0-17.066406-7.640625-17.066406-17.066407 0-9.425781 7.640625-17.066406 17.066406-17.066406zm0 0" fill="#d9d9d9"/><path d="m162.128906 290.636719c0 28.277343-22.921875 51.199219-51.199218 51.199219-28.277344 0-51.199219-22.921876-51.199219-51.199219 0-28.277344 22.921875-51.199219 51.199219-51.199219 28.277343 0 51.199218 22.921875 51.199218 51.199219zm0 0" fill="#a8a8a8"/><path d="m127.996094 290.636719c0 9.425781-7.640625 17.066406-17.066406 17.066406-9.425782 0-17.066407-7.640625-17.066407-17.066406s7.640625-17.066407 17.066407-17.066407c9.425781 0 17.066406 7.640626 17.066406 17.066407zm0 0" fill="#d9d9d9"/><path d="m452.265625 290.636719c0 25.921875-21.011719 46.933593-46.933594 46.933593s-46.933593-21.011718-46.933593-46.933593 21.011718-46.933594 46.933593-46.933594 46.933594 21.011719 46.933594 46.933594zm0 0" fill="#a8a8a8"/><path d="m422.398438 290.636719c0 9.425781-7.640626 17.066406-17.066407 17.066406s-17.066406-7.640625-17.066406-17.066406 7.640625-17.066407 17.066406-17.066407 17.066407 7.640626 17.066407 17.066407zm0 0" fill="#d9d9d9"/><g fill="#a8a8a8"><path d="m153.597656 196.769531h17.066406v17.066407h-17.066406zm0 0"/><path d="m170.664062 213.835938h17.066407v17.066406h-17.066407zm0 0"/><path d="m204.796875 213.835938h17.066406v17.066406h-17.066406zm0 0"/><path d="m187.730469 196.769531h17.066406v17.066407h-17.066406zm0 0"/><path d="m221.863281 196.769531h17.066407v17.066407h-17.066407zm0 0"/><path d="m238.929688 213.835938h17.066406v17.066406h-17.066406zm0 0"/><path d="m255.996094 196.769531h17.070312v17.066407h-17.070312zm0 0"/><path d="m273.066406 213.835938h17.066406v17.066406h-17.066406zm0 0"/><path d="m290.132812 196.769531h17.066407v17.066407h-17.066407zm0 0"/><path d="m307.199219 213.835938h17.066406v17.066406h-17.066406zm0 0"/><path d="m324.265625 196.769531h17.066406v17.066407h-17.066406zm0 0"/></g><path d="m25.59375 205.300781h42.667969c9.425781 0 17.066406-7.640625 17.066406-17.066406v-25.597656h-25.597656c-18.851563 0-34.132813 15.28125-34.132813 34.132812v8.53125zm0 0" fill="#c7463b"/><path d="m452.265625 176.597656v28.703125c0 9.425781 7.640625 17.066407 17.066406 17.066407h25.601563v-34.132813zm0 0" fill="#fd9226"/><path d="m503.46875 254.625v-66.390625c0-3.847656-2.578125-7.222656-6.289062-8.234375l-91.378907-24.917969-55.933593-63.921875v-5.324218c0-18.851563-15.285157-34.136719-34.136719-34.136719h-53.589844l-15.121094-45.363281c-1.160156-3.484376-4.417969-5.832032-8.089843-5.835938h-34.132813c-3.671875.003906-6.929687 2.351562-8.089844 5.835938l-15.121093 45.363281h-62.121094c-18.851563 0-34.136719 15.285156-34.136719 34.136719v6.515624l-31.152344 62.296876c-21.183593 2.746093-37.054687 20.761718-37.113281 42.121093v52.769531c-13.304688 4.6875-20.292969 19.269532-15.605469 32.574219 3.605469 10.238281 13.285157 17.078125 24.140625 17.054688h26.28125c4.683594 32.613281 34.917969 55.257812 67.53125 50.570312 26.214844-3.761719 46.808594-24.355469 50.570313-50.570312h180.609375c4.667968 30.234375 32.960937 50.960937 63.195312 46.292969 23.871094-3.6875 42.605469-22.417969 46.289063-46.292969h26.328125c14.085937.050781 25.546875-11.324219 25.597656-25.410157.027344-7.304687-3.082031-14.269531-8.53125-19.132812zm-62.746094-6.65625c-20.507812-17.066406-50.273437-17.066406-70.777344 0h-217.296874c-23.160157-22.753906-60.277344-22.753906-83.4375 0h-35.082032v-34.132812h34.132813c14.140625 0 25.601562-11.460938 25.601562-25.601563v-17.066406h306.058594l43.8125 11.949219v22.183593c0 14.140625 11.460937 25.601563 25.597656 25.601563h17.066407v17.066406zm-90.132812 34.132812h-180.609375c-.847657-5.914062-2.589844-11.667968-5.164063-17.066406h191.363282c-2.785157 5.34375-4.671876 11.109375-5.589844 17.066406zm135.808594-68.265624h-17.066407c-4.710937 0-8.53125-3.820313-8.53125-8.535157v-17.535156l25.597657 6.988281zm-104.105469-59.734376h-134.828125v-51.199218h89.992187zm-171.34375-136.535156h21.828125l11.382812 34.132813h-44.59375zm-91.484375 51.199219h196.265625c9.425781 0 17.066406 7.644531 17.066406 17.070313h-93.867187c-4.710938 0-8.53125 3.820312-8.53125 8.53125v59.734374h-17.066407v-59.734374c0-4.710938-3.820312-8.53125-8.535156-8.53125h-102.402344c0-9.425782 7.644531-17.070313 17.070313-17.070313zm-20.328125 34.136719h97.125v51.199218h-122.726563zm-39.40625 68.265625h17.066406v17.066406c0 4.714844-3.820313 8.535156-8.535156 8.535156h-34.132813c0-14.140625 11.460938-25.601562 25.601563-25.601562zm-42.667969 102.402343c0-4.714843 3.820312-8.535156 8.53125-8.535156h31.445312c-2.570312 5.398438-4.3125 11.152344-5.160156 17.066406h-26.285156c-4.710938 0-8.53125-3.820312-8.53125-8.53125zm93.867188 59.734376c-23.5625.136718-42.777344-18.851563-42.917969-42.417969-.136719-23.5625 18.855469-42.777344 42.417969-42.917969 12.324218-.070312 24.078124 5.191406 32.234374 14.429688.050782.050781.09375.121093.148438.171874 6.910156 7.71875 10.75 17.707032 10.785156 28.066407-.027344 23.550781-19.113281 42.640625-42.667968 42.667969zm294.402343-4.269532c-21.207031 0-38.398437-17.191406-38.398437-38.398437s17.191406-38.402344 38.398437-38.402344 38.402344 17.195313 38.402344 38.402344c-.023437 21.199219-17.203125 38.375-38.402344 38.398437zm81.066407-46.933594h-26.324219c-.914063-5.957031-2.804688-11.722656-5.589844-17.066406h31.917969c4.710937 0 8.53125 3.820313 8.53125 8.535156 0 4.710938-3.820313 8.53125-8.535156 8.53125zm0 0"/><path d="m110.929688 265.035156c-14.140626 0-25.601563 11.460938-25.601563 25.601563 0 14.136719 11.460937 25.601562 25.601563 25.601562 14.136718 0 25.601562-11.464843 25.601562-25.601562 0-14.140625-11.464844-25.601563-25.601562-25.601563zm0 34.132813c-4.714844 0-8.535157-3.820313-8.535157-8.53125 0-4.714844 3.824219-8.535157 8.535157-8.535157 4.710937 0 8.53125 3.824219 8.53125 8.535157.003906 4.710937-3.820313 8.53125-8.53125 8.53125zm0 0"/><path d="m405.332031 265.035156c-14.136719 0-25.601562 11.460938-25.601562 25.601563 0 14.136719 11.464843 25.601562 25.601562 25.601562 14.140625 0 25.601563-11.464843 25.601563-25.601562 0-14.140625-11.460938-25.601563-25.601563-25.601563zm0 34.132813c-4.710937 0-8.53125-3.820313-8.53125-8.53125 0-4.714844 3.820313-8.535157 8.53125-8.535157 4.714844 0 8.535157 3.824219 8.535157 8.535157 0 4.710937-3.820313 8.53125-8.535157 8.53125zm0 0"/><path d="m153.597656 196.769531h17.066406v17.066407h-17.066406zm0 0"/><path d="m170.664062 213.835938h17.066407v17.066406h-17.066407zm0 0"/><path d="m204.796875 213.835938h17.066406v17.066406h-17.066406zm0 0"/><path d="m187.730469 196.769531h17.066406v17.066407h-17.066406zm0 0"/><path d="m221.863281 196.769531h17.066407v17.066407h-17.066407zm0 0"/><path d="m238.929688 213.835938h17.066406v17.066406h-17.066406zm0 0"/><path d="m255.996094 196.769531h17.070312v17.066407h-17.070312zm0 0"/><path d="m273.066406 213.835938h17.066406v17.066406h-17.066406zm0 0"/><path d="m290.132812 196.769531h17.066407v17.066407h-17.066407zm0 0"/><path d="m307.199219 213.835938h17.066406v17.066406h-17.066406zm0 0"/><path d="m324.265625 196.769531h17.066406v17.066407h-17.066406zm0 0"/></svg>