<?xml version="1.0" encoding="iso-8859-1"?>
<!-- Generator: Adobe Illustrator 19.0.0, SVG Export Plug-In . SVG Version: 6.00 Build 0)  -->
<svg version="1.1" id="Capa_1" xmlns="http://www.w3.org/2000/svg" xmlns:xlink="http://www.w3.org/1999/xlink" x="0px" y="0px"
	 viewBox="0 0 512 512" style="enable-background:new 0 0 512 512;" xml:space="preserve">
<rect x="85.377" y="379.695" style="fill:#533222;" width="341.51" height="42.689"/>
<rect x="85.377" y="379.695" style="fill:#5B3726;" width="341.51" height="17.075"/>
<rect x="8.538" y="97.446" style="fill:#744630;" width="495.189" height="290.796"/>
<g>
	<polygon style="fill:#5B3726;" points="503.727,388.028 503.727,375.981 467.066,339.491 455.011,351.597 491.825,388.233 
		503.522,388.233 	"/>
	<polygon style="fill:#5B3726;" points="8.538,376.331 8.538,388.028 8.743,388.233 20.789,388.233 57.28,351.572 45.173,339.525 	
		"/>
</g>
<g>
	<rect id="SVGCleanerId_0" x="42.689" y="123.358" style="fill:#1E7C6B;" width="426.887" height="230.69"/>
</g>
<g>
	<polygon style="fill:#5B3726;" points="8.538,101.484 53.728,146.674 65.8,134.602 28.644,97.446 8.538,97.446 	"/>
	<polygon style="fill:#5B3726;" points="503.727,97.446 483.621,97.446 455.002,126.064 467.074,138.136 503.727,101.484 	"/>
</g>
<g>
	<rect id="SVGCleanerId_0_1_" x="42.689" y="123.358" style="fill:#1E7C6B;" width="426.887" height="230.69"/>
</g>
<g>
	
		<rect id="SVGCleanerId_0_2_" x="42.689" y="123.358" style="fill:none;stroke:#1E7C6B;stroke-miterlimit:10;" width="426.887" height="230.69"/>
</g>
<rect x="324.434" y="294.317" style="fill:#3B869E;" width="110.991" height="59.764"/>
<rect x="418.349" y="294.317" style="fill:#1F6C8C;" width="17.075" height="59.764"/>
<polygon style="fill:#DBDBDB;" points="279.833,354.082 256.132,337.109 295.858,278.762 319.551,295.735 "/>
<path style="fill:#208673;" d="M469.576,140.075v-16.717H42.689v228.658C162.371,326.88,357.211,268.132,469.576,140.075z"/>
<path d="M8.538,397.283H76.84v25.101c0,4.713,3.825,8.538,8.538,8.538h341.51c4.713,0,8.538-3.825,8.538-8.538v-25.101h68.037
	c4.713,0,8.538-3.825,8.538-8.538V89.616c0-4.713-3.825-8.538-8.538-8.538H8.538C3.825,81.079,0,84.904,0,89.616v299.128
	C0,393.458,3.825,397.283,8.538,397.283z M426.887,380.207H85.377H28.678l17.374-17.588h286.919h93.915h38.975l17.801,17.588
	H426.887z M295.969,345.544l28.465-41.809v41.809H295.969z M267.88,335.025l30.113-44.234l9.81,7.027l-30.113,44.234L267.88,335.025
	z M418.349,345.544h-76.84v-34.356h76.84V345.544z M426.887,294.113h-93.915c-1.921,0-3.611,0.751-5.037,1.827
	c0.06-2.732-1.033-5.439-3.407-7.146l-23.701-16.973c-1.87-1.34-4.201-1.878-6.463-1.46c-2.262,0.401-4.269,1.699-5.567,3.594
	l-39.718,58.347c-2.613,3.833-1.682,9.041,2.083,11.739l2.092,1.494H51.226v-213.64h409.812v213.649h-25.613V302.65
	C435.425,297.937,431.6,294.113,426.887,294.113z M478.114,350.718V127.276l16.811-17.016v257.063L478.114,350.718z M466.417,114.82
	H46.198L29.327,98.154h453.559L466.417,114.82z M34.151,126.926v223.45l-17.075,17.28V110.056L34.151,126.926z M418.349,413.846
	H93.915v-16.563h324.434V413.846z"/>
<g>
</g>
<g>
</g>
<g>
</g>
<g>
</g>
<g>
</g>
<g>
</g>
<g>
</g>
<g>
</g>
<g>
</g>
<g>
</g>
<g>
</g>
<g>
</g>
<g>
</g>
<g>
</g>
<g>
</g>
</svg>
